# xmcd
#
# Track frame offsets:
# 150
# 45603
# 52149
# 55384
# 58612
# 63764
# 82854
# 92744
# 105688
# 125316
# 137243
# 153168
# 160312
# 171288
# 178897
# 187519
# 197168
# 206373
# 216426
# 223260
# 226932
# 236436
# 255433
# 260856
# 274266
#
# Disc length: 3754 seconds
#
#
# Revision: 2
# Processed by: cddbd v1.5.2PL0 Copyright (c) Steve Scherf et al.
# Submitted via: FreeRIP 2.951 
#
DISCID=6e0ea819
DTITLE=The Cambridge Singers - Cambridge Singers A Cappella -  directed by John Rutter
DYEAR=1900
DGENRE=Classical
TTITLE0=Britten - Hymn to St. Cecilia
TTITLE1=Brahms - Vier Lieder aus dem Jungbrunnen -  Nun stehn die Rosen in Bluete
TTITLE2=Brahms - Vier Lieder aus dem Jungbrunnen -  Die Berge sind spitz
TTITLE3=Brahms - Vier Lieder aus dem Jungbrunnen -  Am Wildbach die Weiden
TTITLE4=Brahms - Vier Lieder aus dem Jungbrunnen - Und gehst du ueber den Kirchhof
TTITLE5=Schumann - Vier doppelchorige Gesange op141 - An die Sterne
TTITLE6=Schumann - Vier doppelchorige Gesange op141 - Ungewisses Licht
TTITLE7=Schumann - Vier doppelchorige Gesange op141 - Zuversicht
TTITLE8=Schumann - Vier doppelchorige Gesange op141 - Talismane
TTITLE9=Pearsall - Lay a Garland
TTITLE10=Delius - The splendour falls on castle walls
TTITLE11=Ravel - trois chansons - Nicolette
TTITLE12=Ravel - trois chansons - Trois beaux oiseaux du Paradis
TTITLE13=Ravel - trois chansons - Ronde
TTITLE14=Debussy - Trois chansons de Charles d'Orleans - Dieu! qu'il la fait bon regarder
TTITLE15=Debussy - Trois chansons de Charles d'Orleans - Quant j'ai ouy le tabourin
TTITLE16=Debussy - Trois chansons de Charles d'Orleans - Yver, vous n'estes qu'un villain
TTITLE17=Poulenc - Chansons Francais -  Margoton va t'a l'iau
TTITLE18=Poulenc - Chansons Francais -  La belle se sied au pied de la tour
TTITLE19=Poulenc - Chansons Francais -  Pilons l'orge
TTITLE20=Poulenc - Chansons Francais -  Clic, clac, dansez sabots
TTITLE21=Poulenc - Chansons Francais -  C'est la petit' fill' du prince
TTITLE22=Poulenc - Chansons Francais -  La belle si nous etions
TTITLE23=Poulenc - Chansons Francais -  Ah! mon beau laboureur
TTITLE24=Poulenc - Chansons Francais -  Les tisserands
EXTD=
EXTT0=Composer: Benjamin Britten
EXTT1=Vier Lieder aus dem Jungbrunnen\nComposer: Johannes Brahms
EXTT2=
EXTT3=
EXTT4=
EXTT5=Vier doppelchoerige Gesaenge\nComposer: Robert Schumann
EXTT6=
EXTT7=
EXTT8=
EXTT9=Composer: R. L. Pearsall
EXTT10=Composer: Frederick Delius
EXTT11=Trois Chansons\nComposer: Maurice Ravel
EXTT12=
EXTT13=
EXTT14=Trois chansons de Chalres d'Orleans\nComposer: Claude Debussy
EXTT15=
EXTT16=
EXTT17=Chansons francaises\nComposer: Francis Poulenc
EXTT18=
EXTT19=
EXTT20=
EXTT21=
EXTT22=
EXTT23=
EXTT24=
PLAYORDER=
